<mxfile host="app.diagrams.net" modified="2022-11-06T20:30:55.895Z" agent="5.0 (Windows NT 10.0; Win64; x64) AppleWebKit/537.36 (KHTML, like Gecko) Chrome/106.0.0.0 Safari/537.36" etag="Sx_sYpiiSUJAUiQnMTFx" version="20.5.1" type="github">
  <diagram id="JFqGSWrUJnnyzn2Xk5LL" name="Page-1">
    <mxGraphModel dx="1038" dy="618" grid="1" gridSize="10" guides="1" tooltips="1" connect="1" arrows="1" fold="1" page="1" pageScale="1" pageWidth="850" pageHeight="1100" math="0" shadow="0">
      <root>
        <mxCell id="0" />
        <mxCell id="1" parent="0" />
        <mxCell id="Oczg_My4qzLX7jxIvf6b-8" value="" style="verticalLabelPosition=bottom;verticalAlign=top;html=1;shape=mxgraph.basic.arc;startAngle=0.7547732166712652;endAngle=0.25;" vertex="1" parent="1">
          <mxGeometry x="244" y="350" width="330" height="150" as="geometry" />
        </mxCell>
        <mxCell id="Oczg_My4qzLX7jxIvf6b-3" value="" style="rounded=1;whiteSpace=wrap;html=1;" vertex="1" parent="1">
          <mxGeometry x="230" y="440" width="410" height="30" as="geometry" />
        </mxCell>
        <mxCell id="Oczg_My4qzLX7jxIvf6b-4" value="" style="rounded=1;whiteSpace=wrap;html=1;" vertex="1" parent="1">
          <mxGeometry x="240" y="420" width="10" height="30" as="geometry" />
        </mxCell>
        <mxCell id="Oczg_My4qzLX7jxIvf6b-7" value="" style="rounded=1;whiteSpace=wrap;html=1;" vertex="1" parent="1">
          <mxGeometry x="560" y="420" width="70" height="30" as="geometry" />
        </mxCell>
      </root>
    </mxGraphModel>
  </diagram>
</mxfile>
